<?xml version="1.0" standalone="no"?>
<!DOCTYPE svg PUBLIC "-//W3C//DTD SVG 20010904//EN"
 "http://www.w3.org/TR/2001/REC-SVG-20010904/DTD/svg10.dtd">
<svg version="1.0" xmlns="http://www.w3.org/2000/svg"
 width="1300.000000pt" height="740.000000pt" viewBox="0 0 1300.000000 740.000000"
 preserveAspectRatio="xMidYMid meet">

<g transform="translate(0.000000,740.000000) scale(0.100000,-0.100000)"
fill="#000000" stroke="none">
<path d="M6300 6713 c-311 -53 -553 -144 -768 -287 -106 -71 -256 -196 -335
-280 -69 -73 -184 -227 -191 -256 -6 -21 -5 -22 4 -7 14 22 47 22 54 -1 10
-31 138 -82 152 -61 3 5 13 9 23 9 14 0 17 -6 13 -26 -4 -21 3 -33 33 -60 24
-21 49 -34 65 -34 15 0 37 -9 50 -20 l24 -20 -22 -28 c-13 -15 -43 -58 -67
-95 -45 -67 -45 -68 -28 -92 10 -13 25 -25 33 -27 8 -2 50 12 93 31 68 31 77
38 77 62 0 20 4 26 18 24 49 -10 92 -13 92 -7 0 4 -22 18 -50 31 -49 23 -64
41 -36 41 12 0 52 88 43 96 -1 1 -27 5 -57 8 -30 3 -83 14 -117 23 -57 16 -63
20 -63 45 0 15 5 39 11 55 10 26 12 27 23 11 18 -25 26 -22 26 6 0 20 -4 24
-22 20 -13 -2 -61 -7 -108 -10 -72 -6 -87 -4 -99 10 -13 15 -15 15 -32 0 -21
-19 -39 -11 -39 17 0 16 6 19 33 18 17 -2 41 2 52 8 29 16 58 11 73 -12 9 -13
12 -14 8 -4 -5 18 11 39 30 39 6 0 14 -8 17 -19 2 -10 15 -20 29 -23 22 -4 24
-3 14 18 -6 12 -14 20 -18 18 -19 -12 -5 17 23 47 19 20 31 45 32 63 2 28 -1
31 -23 28 -30 -3 -70 6 -70 16 0 4 28 16 63 26 34 11 66 23 72 28 5 4 68 8
140 8 124 -1 129 -1 109 -18 -12 -9 -36 -25 -54 -35 -17 -9 -34 -26 -37 -37
-4 -17 -14 -20 -54 -20 -27 0 -49 -3 -50 -7 0 -5 -2 -16 -4 -26 -2 -12 12 -24
51 -44 30 -14 54 -29 54 -32 -1 -3 -38 -28 -82 -56 -87 -53 -106 -74 -62 -69
44 4 147 -18 179 -40 17 -11 47 -36 67 -56 l37 -35 -15 -62 c-15 -57 -18 -62
-51 -70 -31 -7 -33 -10 -20 -27 12 -16 19 -17 44 -8 33 11 45 3 85 -59 9 -14
23 -32 30 -40 7 -8 18 -26 25 -40 13 -30 21 -26 -92 -53 l-60 -14 150 -1 c83
-1 221 -4 308 -8 l157 -6 0 35 c0 19 3 37 6 41 4 4 145 -92 173 -119 2 -2 -38
-24 -90 -48 l-94 -44 -3 42 -3 43 -142 6 c-234 11 -377 9 -377 -5 0 -7 -31
-24 -68 -38 l-67 -25 -15 -60 c-11 -47 -24 -69 -57 -102 -41 -40 -43 -44 -37
-90 4 -37 3 -44 -5 -31 -6 9 -25 23 -41 32 -27 13 -36 13 -83 0 -106 -30 -107
-31 -107 -84 0 -45 3 -50 42 -79 29 -22 48 -29 65 -25 17 5 23 2 23 -10 0 -9
12 -19 27 -22 31 -8 46 -21 56 -46 12 -33 107 -77 107 -50 0 9 71 26 150 37
40 6 53 2 109 -29 34 -20 65 -36 68 -36 3 0 38 -20 77 -45 47 -29 105 -54 169
-72 l97 -27 0 -213 0 -213 -40 0 -40 0 0 152 c0 83 -3 148 -7 144 -5 -4 -9
-20 -10 -34 0 -15 -5 -80 -9 -144 l-7 -118 -33 0 c-18 0 -35 4 -39 9 -8 14
-64 -20 -71 -42 -5 -15 -14 -18 -51 -15 l-45 3 6 -36 c5 -33 2 -41 -40 -84
-60 -63 -78 -91 -70 -111 4 -9 -1 -29 -11 -43 -10 -14 -23 -37 -30 -50 -11
-20 -11 -22 2 -11 12 10 15 7 21 -15 10 -38 -7 -50 -45 -31 -17 9 -31 20 -32
24 0 4 -3 16 -6 27 -13 49 -15 190 -3 229 20 66 14 181 -11 215 -25 35 -39 93
-32 137 4 25 2 34 -8 34 -8 0 -30 25 -49 55 -19 30 -38 55 -41 55 -4 0 -9 18
-13 41 -5 31 -2 49 15 78 11 21 19 50 17 66 -2 23 -10 30 -44 40 -23 7 -50 21
-62 33 -26 26 -144 81 -169 79 -11 0 -46 9 -80 22 -48 18 -64 29 -73 52 -7 15
-22 39 -34 52 -12 13 -32 37 -45 53 -28 35 -37 33 -33 -6 2 -17 2 -30 -1 -30
-2 0 -19 23 -38 50 -19 28 -48 59 -65 69 -46 27 -94 106 -94 154 0 36 -2 39
-22 34 -13 -4 -42 -9 -65 -13 -49 -7 -49 -8 -59 -149 -7 -119 9 -328 36 -457
25 -115 77 -285 90 -293 6 -3 10 -14 10 -24 0 -31 104 -232 175 -336 94 -139
224 -289 232 -267 8 21 43 14 43 -8 0 -11 -5 -20 -12 -20 -32 0 134 -139 277
-232 201 -130 531 -252 680 -252 61 0 247 42 385 87 571 186 1018 580 1299
1145 71 143 105 228 97 241 -4 5 -20 12 -36 16 -37 8 -38 18 -2 45 15 12 49
42 75 67 26 25 51 42 55 38 4 -4 16 -52 28 -106 l21 -100 -21 5 c-12 3 -30 8
-42 12 -18 5 -25 -7 -64 -98 -252 -599 -698 -1043 -1272 -1266 -85 -33 -236
-81 -333 -106 -11 -3 66 -3 170 -1 156 3 212 8 312 29 466 99 878 376 1139
766 128 192 208 368 259 569 31 123 55 292 54 367 -1 33 -4 47 -6 32 -5 -32
-31 -45 -40 -20 -12 33 -34 39 -56 17 -21 -21 -89 -34 -134 -25 -54 10 -94 33
-121 70 -23 31 -24 31 -38 12 -8 -11 -17 -37 -20 -59 -3 -21 -10 -46 -16 -56
-11 -21 -6 -25 -45 38 -14 22 -47 91 -56 116 -3 9 -18 20 -34 23 -15 4 -35 13
-43 20 -24 21 -79 36 -158 46 -53 6 -80 14 -96 29 -44 41 -65 13 -24 -34 18
-21 27 -24 59 -19 31 5 42 2 65 -19 l28 -26 -27 -39 c-35 -50 -76 -80 -135
-98 -42 -13 -48 -12 -57 2 -86 141 -192 255 -169 182 15 -49 53 -109 110 -173
58 -65 60 -67 102 -62 39 4 42 3 42 -20 0 -29 -8 -45 -66 -135 -40 -61 -44
-73 -44 -130 0 -70 -21 -141 -42 -146 -7 -1 -26 -46 -43 -99 -36 -114 -85
-178 -149 -193 -42 -9 -66 -4 -66 14 0 6 -9 22 -20 36 l-20 25 0 -87 c0 -117
-10 -128 -116 -128 l-75 0 3 38 c3 36 4 37 47 39 45 3 61 14 61 43 0 11 -2 12
-8 3 -4 -7 -22 -15 -38 -19 -25 -5 -37 0 -60 21 -28 26 -29 26 -32 6 -2 -12
-8 -21 -13 -21 -5 0 -9 -7 -9 -15 0 -20 -23 -19 -43 3 -13 14 -17 45 -19 152
-3 112 -6 135 -18 135 -12 0 -15 -23 -18 -137 l-3 -138 -39 0 -39 0 -3 135
c-2 82 -7 135 -13 135 -6 0 -11 -53 -13 -135 l-3 -135 -39 0 -40 0 0 175 0
175 40 0 c22 0 40 -5 40 -10 0 -6 11 -3 25 6 21 14 31 15 50 6 14 -7 25 -17
25 -23 0 -8 6 -6 18 4 31 28 68 31 91 8 18 -18 21 -33 21 -102 0 -51 4 -78 10
-74 6 3 10 46 10 96 l0 89 40 0 40 0 0 -79 c0 -73 2 -79 19 -74 16 4 19 17 23
96 6 128 -4 183 -42 222 -25 26 -29 37 -24 62 6 30 4 32 -34 44 -33 10 -48 9
-88 -5 -26 -9 -68 -16 -94 -16 -44 0 -50 3 -118 72 l-72 71 0 57 c0 45 8 72
39 136 23 46 55 94 75 112 39 34 39 57 0 73 -13 4 -24 16 -24 25 0 31 78 182
97 188 10 3 40 26 66 51 38 34 47 49 42 65 -5 16 -2 20 17 20 13 0 28 -4 34
-9 5 -5 40 -11 78 -13 l68 -4 19 43 c10 24 23 43 29 43 17 0 79 53 74 62 -3 4
-20 8 -38 8 -18 0 -35 2 -38 5 -8 9 14 105 24 105 5 0 7 4 3 9 -6 11 -65 -17
-78 -36 -4 -7 -14 -19 -22 -27 -11 -11 -14 -26 -9 -54 5 -31 1 -47 -17 -75
-13 -20 -27 -37 -31 -37 -4 0 -14 12 -22 28 -12 23 -20 27 -57 27 -37 0 -43 3
-49 26 -6 21 -1 34 27 65 19 22 50 66 68 99 30 56 37 62 96 85 35 14 69 28 75
32 7 5 31 1 54 -7 23 -8 55 -15 70 -15 15 0 49 -9 75 -21 54 -24 47 -39 -17
-39 -45 0 -49 -17 -11 -44 26 -19 27 -19 62 1 20 11 43 34 52 51 15 28 17 29
32 15 15 -15 19 -14 54 13 21 16 42 29 48 29 5 0 12 15 16 33 29 143 215 194
318 88 40 -41 60 -38 84 14 17 37 55 59 77 45 6 -4 10 1 10 9 0 18 -207 231
-285 293 -240 193 -560 332 -874 379 -134 20 -159 18 -96 -7 28 -11 78 -34
113 -50 35 -16 65 -29 67 -29 5 0 134 -79 185 -113 78 -52 182 -141 269 -230
l84 -86 33 26 c19 14 34 21 34 17 1 -5 7 -53 14 -107 7 -53 11 -99 9 -101 -4
-4 -183 71 -192 80 -4 4 14 19 53 46 22 15 -184 211 -324 307 -133 91 -244
148 -415 212 -60 23 -75 24 -75 5 0 -11 -15 -15 -64 -15 -64 0 -77 7 -80 44
-1 11 -73 16 -116 8z m-74 -505 c34 -6 75 -21 90 -33 l27 -22 -25 -54 c-14
-30 -33 -99 -42 -153 -17 -100 -24 -121 -54 -158 -37 -46 -62 -64 -106 -76
-51 -13 -50 -12 -66 -92 -16 -82 -20 -86 -67 -61 -23 11 -59 42 -83 68 -34 39
-41 53 -38 80 4 34 -5 43 -46 43 -26 0 -90 40 -117 73 -10 12 -23 41 -30 65
-8 28 -17 42 -28 42 -9 0 -25 14 -35 31 -17 29 -17 31 1 52 10 12 29 31 42 42
14 11 41 35 62 53 30 26 45 32 83 32 40 0 121 18 286 65 58 17 70 17 146 3z
m-926 -159 c30 -11 57 -22 59 -24 5 -5 -18 -28 -49 -48 -23 -15 -28 -15 -68 3
-48 22 -52 31 -17 50 19 10 22 16 14 27 -16 18 -3 16 61 -8z m1151 -349 c36
-20 17 -38 -49 -46 -23 -3 -41 2 -59 16 l-26 20 29 1 c16 0 38 4 49 9 27 12
33 12 56 0z m195 -194 c-4 -18 -1 -25 13 -29 18 -4 57 -64 49 -73 -3 -2 -19
-7 -36 -10 -27 -6 -32 -4 -32 13 0 10 5 24 10 29 7 7 2 18 -15 34 -31 29 -33
60 -4 60 17 0 20 -4 15 -24z m-46 -69 c0 -25 -17 -47 -36 -47 -14 0 -6 52 10
62 19 13 26 9 26 -15z m1684 -691 c35 -34 49 -64 24 -52 -7 3 -21 9 -30 12
-10 4 -18 13 -18 20 0 8 -3 14 -8 14 -4 0 -13 9 -20 20 -21 33 10 25 52 -14z
m-5 -97 c58 -55 60 -74 5 -44 -35 19 -74 63 -74 84 0 20 15 11 69 -40z m-763
-296 c-14 -102 -27 -143 -46 -143 -23 0 -39 44 -32 89 5 33 55 101 75 101 5 0
7 -20 3 -47z m-1061 -14 c18 -17 21 -37 25 -174 l5 -155 -42 0 c-24 0 -43 5
-43 11 0 5 -10 3 -22 -5 -31 -22 -45 -20 -73 9 -18 17 -25 35 -25 64 0 57 17
87 72 127 32 22 48 41 46 52 -5 25 -32 21 -36 -5 -3 -19 -10 -23 -43 -23 -35
0 -39 3 -39 24 0 43 19 77 52 91 40 18 96 11 123 -16z m-962 -126 c42 -24 77
-46 77 -47 0 -6 -169 -106 -178 -106 -6 0 -11 45 -11 106 -2 123 -11 119 112
47z m-565 -10 c5 -17 -26 -29 -40 -15 -6 6 -7 15 -3 22 9 14 37 9 43 -7z m82
-13 c0 -21 -33 -29 -45 -10 -9 15 4 30 26 30 12 0 19 -7 19 -20z m85 -10 c0
-8 -10 -16 -22 -18 -18 -3 -23 2 -23 18 0 16 5 21 23 18 12 -2 22 -10 22 -18z
m83 -3 c4 -21 -25 -34 -40 -19 -8 8 -8 16 2 27 16 19 34 15 38 -8z m85 -1 c7
-17 -18 -40 -33 -31 -5 3 -10 15 -10 26 0 23 35 27 43 5z m82 -11 c0 -11 -7
-21 -16 -23 -18 -3 -33 23 -23 39 10 17 39 5 39 -16z m1393 -213 c3 -16 -2
-22 -17 -22 -24 0 -35 15 -27 36 9 23 40 13 44 -14z m-68 -53 c0 -12 -7 -19
-19 -19 -26 0 -36 17 -21 35 15 18 40 8 40 -16z m-72 -42 c4 -21 -25 -34 -40
-19 -8 8 -8 16 2 27 16 19 34 15 38 -8z m-68 -42 c0 -9 -7 -18 -16 -22 -18 -7
-39 11 -30 26 11 17 46 13 46 -4z m-77 -39 c7 -18 -1 -26 -25 -26 -11 0 -18 7
-18 20 0 23 35 28 43 6z m-75 -39 c4 -20 -25 -34 -40 -19 -15 15 -1 44 19 40
10 -2 19 -11 21 -21z m-80 -40 c2 -11 -3 -17 -17 -17 -23 0 -35 15 -26 31 10
15 39 6 43 -14z m-80 -20 c4 -20 -25 -34 -39 -20 -14 14 1 45 20 41 9 -2 17
-11 19 -21z m-82 -36 c-4 -6 -16 -11 -27 -11 -21 0 -27 35 -6 43 16 6 41 -18
33 -32z m-82 -16 c-9 -22 -44 -19 -44 3 0 26 10 33 31 21 10 -5 16 -16 13 -24z
m-87 -1 c8 -22 -18 -37 -36 -20 -7 8 -10 19 -7 25 10 16 36 13 43 -5z m-81 -5
c10 -17 -23 -46 -37 -32 -7 7 -9 19 -6 27 7 18 33 21 43 5z m-508 -22 c4 -20
-25 -34 -40 -19 -15 15 -1 44 19 40 10 -2 19 -11 21 -21z m336 7 c7 -19 -1
-34 -19 -34 -18 0 -28 17 -21 35 7 20 32 19 40 -1z m-254 -14 c0 -13 -7 -20
-20 -20 -13 0 -20 7 -20 20 0 13 7 20 20 20 13 0 20 -7 20 -20z m88 -1 c4 -19
-19 -31 -38 -19 -18 11 -4 42 17 38 10 -2 19 -10 21 -19z m82 3 c0 -24 -8 -32
-26 -25 -22 8 -17 43 6 43 13 0 20 -7 20 -18z"/>
<path d="M6378 4148 c-21 -31 -23 -54 -7 -64 18 -11 31 12 27 52 l-3 38 -17
-26z"/>
<path d="M11280 6079 c-138 -35 -285 -122 -379 -224 -23 -25 -39 -50 -35 -57
4 -6 3 -8 -4 -4 -13 8 -65 -65 -98 -141 -24 -53 -25 -65 -22 -200 l3 -143 -27
0 c-33 0 -34 -4 -14 -115 25 -139 80 -258 170 -366 61 -75 141 -143 156 -134
6 4 9 1 8 -6 -4 -17 151 -94 232 -116 49 -14 100 -18 210 -17 130 1 154 4 225
28 44 14 110 43 147 64 82 46 201 150 194 169 -3 8 -2 11 4 8 13 -8 44 28 90
106 75 126 118 308 105 448 -12 148 -82 333 -154 410 -16 17 -26 31 -23 31 3
0 -5 11 -18 25 -12 13 -27 22 -33 18 -6 -3 -7 -1 -3 5 10 17 -103 105 -195
150 -46 23 -120 51 -163 62 -106 27 -271 27 -376 -1z m367 -198 c72 -25 121
-51 180 -98 23 -18 47 -31 55 -30 7 2 10 2 6 0 -14 -8 -8 -25 7 -20 8 4 17 1
21 -5 4 -7 3 -8 -4 -4 -21 13 -13 -6 18 -41 17 -18 30 -39 30 -45 0 -7 4 -7
14 1 10 8 16 9 21 1 8 -12 -5 -102 -14 -98 -3 2 -23 14 -45 27 -33 21 -36 26
-23 36 14 10 13 15 -10 43 -13 18 -29 29 -35 26 -7 -4 -8 -2 -4 5 9 14 -41 64
-55 55 -5 -3 -8 0 -7 7 4 15 -103 81 -120 74 -8 -3 -10 0 -6 7 5 7 0 9 -14 6
-12 -4 -20 -3 -17 2 5 9 -56 26 -132 36 -60 7 -161 -8 -239 -37 -101 -38 -230
-142 -217 -175 5 -12 11 -10 36 13 16 15 27 22 23 16 -4 -8 -1 -13 8 -13 8 0
21 -9 29 -21 8 -11 18 -16 21 -11 9 15 130 70 194 88 123 36 282 -2 380 -90
25 -23 42 -32 44 -24 3 8 7 6 11 -6 4 -10 3 -15 -3 -11 -16 10 -12 -2 19 -47
16 -24 33 -56 36 -71 4 -15 12 -24 18 -20 5 3 7 2 4 -4 -4 -6 -2 -37 3 -70 9
-55 2 -123 -23 -218 -1 -6 -17 -32 -35 -59 -26 -39 -31 -51 -20 -58 10 -8 9
-9 -4 -5 -18 6 -52 -25 -41 -38 5 -4 2 -5 -5 -1 -7 4 -25 -3 -42 -18 -40 -33
-132 -67 -202 -73 -99 -10 -227 26 -285 79 -12 11 -26 17 -32 14 -7 -5 -8 -1
-4 10 5 14 3 16 -11 11 -9 -4 -15 -3 -12 1 3 5 -12 32 -33 60 -22 28 -45 74
-52 101 -7 28 -16 48 -21 45 -4 -3 -5 2 -2 11 3 8 3 26 0 40 -5 21 -12 25 -44
25 l-37 0 2 117 c2 113 1 117 -13 84 -11 -24 -14 -59 -12 -118 l3 -83 -37 0
c-20 0 -40 5 -43 10 -4 6 -12 4 -22 -6 -20 -19 -72 -12 -90 13 -18 24 -16 96
3 137 10 19 33 43 56 56 26 14 37 27 34 37 -3 8 -1 11 4 8 6 -3 10 -1 10 4 0
6 -9 11 -21 11 -16 0 -19 -4 -14 -20 6 -18 2 -20 -39 -20 -43 0 -46 2 -46 26
0 14 7 41 16 60 13 28 23 34 60 40 53 8 96 -8 114 -42 13 -23 14 -23 27 -5 7
11 10 27 7 35 -4 11 -2 15 7 11 18 -6 67 63 64 92 -1 12 2 20 7 17 5 -4 7 -12
4 -20 -8 -21 8 -17 30 7 47 52 186 123 274 139 71 14 217 4 287 -19z m403
-603 c0 -33 -12 -85 -31 -138 -17 -47 -31 -93 -32 -102 -1 -9 -5 -14 -9 -12
-4 3 -14 -8 -22 -24 -19 -36 -174 -182 -193 -182 -8 0 -12 -4 -9 -8 2 -4 -3
-8 -12 -9 -9 -1 -46 -12 -82 -26 -170 -65 -386 -33 -533 79 -32 25 -63 42 -69
38 -7 -4 -8 -3 -4 5 4 6 -10 31 -33 58 -23 25 -41 49 -41 53 0 5 -10 6 -21 3
-21 -6 -21 -4 -14 43 4 27 8 51 10 53 2 2 16 -6 31 -18 30 -23 49 -28 38 -8
-4 6 -3 8 1 4 15 -13 14 -38 -1 -44 -8 -3 -11 -9 -8 -14 3 -5 9 -7 14 -4 4 3
7 -3 6 -13 0 -9 5 -16 11 -15 7 2 12 0 11 -5 -2 -13 14 -42 24 -42 5 0 6 5 2
12 -4 7 -3 8 4 4 6 -4 9 -12 6 -19 -6 -16 53 -60 68 -51 6 4 8 3 4 -4 -15 -24
129 -87 232 -102 74 -10 176 0 254 26 85 28 216 123 201 147 -3 6 -1 7 5 3 14
-8 63 52 96 119 31 64 56 155 56 207 0 31 4 38 20 38 17 0 20 -7 20 -52z
m-906 -256 c3 -5 -1 -9 -9 -9 -8 0 -12 4 -9 9 3 4 7 8 9 8 2 0 6 -4 9 -8z
m732 -30 c-17 -16 -18 -16 -5 5 7 12 15 20 18 17 3 -2 -3 -12 -13 -22z m-900
-52 c0 -12 -4 -16 -9 -11 -5 5 -6 14 -3 20 10 15 12 14 12 -9z m75 -93 c-10
-9 -11 -8 -5 6 3 10 9 15 12 12 3 -3 0 -11 -7 -18z m496 -43 c-3 -3 -12 -4
-19 -1 -8 3 -5 6 6 6 11 1 17 -2 13 -5z"/>
<path d="M11418 5682 c-27 -16 -28 -20 -28 -99 0 -76 2 -83 20 -83 18 0 20 7
20 86 0 54 4 83 10 79 6 -3 10 3 10 14 0 25 2 25 -32 3z"/>
<path d="M11490 5680 c0 -11 5 -20 10 -20 6 0 10 -33 10 -80 l0 -80 60 0 59 0
-14 39 c-22 64 -59 121 -73 116 -7 -3 -11 -1 -8 4 3 5 -5 16 -19 25 -24 16
-25 15 -25 -4z"/>
<path d="M11317 5669 c-27 -14 -37 -25 -33 -35 3 -9 6 -25 6 -37 1 -20 1 -21
11 -4 6 10 9 28 6 38 -4 15 1 23 18 29 13 5 26 14 30 19 8 14 7 14 -38 -10z"/>
<path d="M11612 5641 c12 -22 26 -37 30 -35 4 3 6 -1 3 -8 -3 -7 1 -31 9 -53
l14 -40 68 -3 67 -3 -18 28 c-29 47 -104 115 -116 107 -7 -4 -9 -3 -6 3 5 8
-51 43 -69 43 -2 0 6 -18 18 -39z"/>
<path d="M11061 5498 l0 -83 15 45 c19 61 19 120 -1 120 -12 0 -15 -16 -14
-82z"/>
<path d="M11182 5568 c-7 -7 -12 -25 -12 -40 0 -21 5 -28 20 -28 17 0 20 7 20
40 0 41 -7 49 -28 28z"/>
<path d="M10847 5440 c-23 -27 -22 -50 3 -50 16 0 20 7 20 35 0 19 -1 35 -3
35 -1 0 -10 -9 -20 -20z"/>
<path d="M11172 5385 l3 -74 -40 -3 c-39 -3 -40 -4 -37 -37 8 -77 14 -82 93
-80 l71 2 -6 45 c-3 25 -6 51 -6 60 0 9 -7 13 -20 9 -19 -5 -20 0 -20 74 0 73
-1 79 -21 79 -19 0 -20 -5 -17 -75z"/>
<path d="M11390 5436 c0 -36 10 -55 26 -49 8 3 14 19 14 39 0 27 -4 34 -20 34
-14 0 -20 -7 -20 -24z"/>
<path d="M11507 5348 c-2 -62 -7 -123 -12 -136 -8 -23 -7 -23 66 -20 l74 3 9
58 c4 31 5 91 1 132 l-7 75 -63 0 -64 0 -4 -112z"/>
<path d="M11685 5325 l0 -136 69 3 c68 3 70 4 78 33 13 44 12 159 -2 200 l-12
35 -66 0 -67 0 0 -135z"/>
<path d="M11296 5389 c-4 -37 -6 -87 -3 -110 3 -24 6 -54 6 -66 1 -22 4 -23
79 -21 l77 2 -67 3 -68 4 0 39 0 40 43 0 c44 0 67 13 67 39 0 12 -3 11 -18 -2
-24 -22 -66 -22 -83 0 -8 9 -16 43 -19 77 l-6 61 -8 -66z"/>
<path d="M11157 5119 c23 -41 97 -106 147 -130 22 -10 41 -19 42 -19 2 0 -9
21 -23 46 -14 25 -31 64 -38 87 l-12 42 -67 3 -68 3 19 -32z"/>
<path d="M11327 5104 c17 -50 66 -119 101 -142 l22 -14 0 101 0 101 -69 0 -70
0 16 -46z"/>
<path d="M11490 5050 c0 -96 1 -100 19 -91 29 16 72 71 92 119 30 69 28 72
-46 72 l-65 0 0 -100z"/>
<path d="M11655 5103 c-9 -27 -28 -67 -42 -90 l-24 -43 26 10 c56 21 134 86
170 143 l17 27 -64 0 -65 0 -18 -47z m46 -40 c13 -16 12 -17 -3 -4 -10 7 -18
15 -18 17 0 8 8 3 21 -13z"/>
<path d="M5411 6037 c2 -1 13 -9 24 -17 19 -14 19 -14 6 3 -7 9 -18 17 -24 17
-6 0 -8 -1 -6 -3z"/>
<path d="M5380 5969 c0 -5 -6 -7 -12 -3 -7 4 -9 3 -5 -1 13 -15 34 -14 34 1 0
8 -4 14 -9 14 -4 0 -8 -5 -8 -11z"/>
<path d="M5288 5883 c6 -2 18 -2 25 0 6 3 1 5 -13 5 -14 0 -19 -2 -12 -5z"/>
<path d="M4985 5850 c-3 -5 -1 -10 4 -10 6 0 11 5 11 10 0 6 -2 10 -4 10 -3 0
-8 -4 -11 -10z"/>
<path d="M8156 5717 c3 -10 9 -15 12 -12 3 3 0 11 -7 18 -10 9 -11 8 -5 -6z"/>
<path d="M2230 5663 c0 -5 7 -16 15 -26 13 -18 14 -18 34 2 12 12 32 21 45 21
43 0 50 -23 54 -171 3 -95 8 -139 16 -139 8 0 10 44 8 155 l-4 155 41 0 41 0
0 -140 c0 -133 1 -140 20 -140 19 0 20 7 20 140 l0 140 40 0 40 0 0 -155 0
-155 625 -1 c344 -1 631 -2 638 -3 9 -1 12 -165 12 -786 l0 -785 -812 -3 -813
-2 0 241 c0 132 -3 239 -7 237 -5 -2 -34 -18 -65 -36 l-58 -34 0 -1121 c0
-1102 0 -1123 20 -1155 11 -18 34 -41 52 -52 32 -19 52 -20 871 -20 923 0 872
-3 919 62 l23 33 3 1808 c2 1767 2 1810 -17 1852 -14 32 -30 49 -60 64 -40 21
-51 21 -871 21 -456 0 -830 -3 -830 -7z m932 -2264 c212 -44 366 -258 344
-478 -16 -157 -105 -283 -252 -357 -117 -59 -267 -58 -388 1 -27 13 -54 21
-59 18 -6 -3 -7 -1 -4 4 4 6 -9 23 -28 37 -41 31 -104 122 -129 186 -29 71
-32 211 -7 285 11 32 17 64 14 70 -4 5 -3 7 1 3 11 -10 77 91 69 105 -3 7 -3
9 2 5 4 -4 27 7 49 26 111 90 249 124 388 95z m-504 -704 c-3 -3 -9 2 -12 12
-6 14 -5 15 5 6 7 -7 10 -15 7 -18z"/>
<path d="M3130 3004 l-125 -125 -17 21 c-16 20 -20 21 -36 9 -15 -12 -16 -12
-5 2 11 13 5 24 -36 67 -55 58 -76 64 -93 26 -12 -25 -8 -30 84 -120 53 -52
101 -94 107 -94 16 0 133 119 126 129 -3 5 0 13 6 17 8 4 9 3 5 -4 -13 -21 10
-13 32 11 24 26 29 42 10 31 -8 -4 -10 -3 -5 2 5 5 14 9 20 9 7 1 11 7 9 14
-1 7 2 9 8 6 7 -4 22 3 36 16 25 24 33 45 12 33 -8 -4 -10 -3 -5 2 5 5 13 9
19 9 17 0 32 30 25 49 -15 39 -52 17 -177 -110z m157 110 c-3 -3 -12 -4 -19
-1 -8 3 -5 6 6 6 11 1 17 -2 13 -5z"/>
<path d="M7950 5610 c-8 -5 -10 -10 -5 -10 6 0 17 5 25 10 8 5 11 10 5 10 -5
0 -17 -5 -25 -10z"/>
<path d="M2150 5450 c0 -118 -2 -140 -15 -140 -13 0 -15 -61 -15 -490 0 -269
3 -490 8 -490 4 1 32 7 62 14 l55 13 3 476 2 476 -32 3 -33 3 -3 138 c-2 113
-5 137 -17 137 -13 0 -15 -23 -15 -140z"/>
<path d="M2260 5470 c0 -118 0 -120 23 -120 22 0 22 1 19 120 -3 111 -5 120
-23 120 -18 0 -19 -8 -19 -120z"/>
<path d="M8266 5433 c-6 -14 -5 -15 5 -6 7 7 10 15 7 18 -3 3 -9 -2 -12 -12z"/>
<path d="M8291 5364 c0 -11 3 -14 6 -6 3 7 2 16 -1 19 -3 4 -6 -2 -5 -13z"/>
<path d="M1270 5311 c-108 -57 -107 -265 2 -356 40 -34 48 -32 48 13 0 26 -6
41 -20 50 -13 8 -20 23 -20 43 0 25 4 30 23 29 46 -4 50 -2 43 34 -8 44 6 55
85 62 74 7 105 23 111 57 8 44 -5 60 -63 74 -81 18 -168 16 -209 -6z"/>
<path d="M4741 5269 c-19 -86 -17 -92 27 -85 78 14 86 21 52 46 -11 8 -20 20
-20 27 0 7 -4 13 -10 13 -5 0 -10 5 -10 11 0 6 -6 17 -14 25 -12 12 -16 7 -25
-37z"/>
<path d="M5356 5291 c-4 -5 3 -7 14 -4 23 6 26 13 6 13 -8 0 -17 -4 -20 -9z"/>
<path d="M5158 5263 c6 -2 18 -2 25 0 6 3 1 5 -13 5 -14 0 -19 -2 -12 -5z"/>
<path d="M6978 5196 c-4 -41 -14 -79 -27 -101 -26 -44 -26 -49 -3 -40 9 4 74
6 143 6 125 -1 127 -1 143 24 10 15 16 36 14 48 -3 19 -9 22 -50 22 -54 1 -88
24 -89 64 0 14 -3 21 -5 14 -3 -7 -12 -9 -20 -6 -10 4 -14 -4 -14 -31 0 -50
-19 -45 -56 15 l-31 50 -5 -65z"/>
<path d="M5048 5243 c7 -3 16 -2 19 1 4 3 -2 6 -13 5 -11 0 -14 -3 -6 -6z"/>
<path d="M5538 5233 c12 -2 32 -2 45 0 12 2 2 4 -23 4 -25 0 -35 -2 -22 -4z"/>
<path d="M5618 5233 c6 -2 18 -2 25 0 6 3 1 5 -13 5 -14 0 -19 -2 -12 -5z"/>
<path d="M5418 5223 c12 -2 32 -2 45 0 12 2 2 4 -23 4 -25 0 -35 -2 -22 -4z"/>
<path d="M5208 5203 c7 -3 16 -2 19 1 4 3 -2 6 -13 5 -11 0 -14 -3 -6 -6z"/>
<path d="M5288 5203 c7 -3 16 -2 19 1 4 3 -2 6 -13 5 -11 0 -14 -3 -6 -6z"/>
<path d="M5128 5193 c6 -2 18 -2 25 0 6 3 1 5 -13 5 -14 0 -19 -2 -12 -5z"/>
<path d="M5068 5183 c7 -3 16 -2 19 1 4 3 -2 6 -13 5 -11 0 -14 -3 -6 -6z"/>
<path d="M8346 4988 c-3 -18 -1 -49 3 -68 8 -31 9 -27 10 33 1 73 -3 86 -13
35z"/>
<path d="M2491 4753 c-19 -17 -21 -30 -23 -161 -2 -78 0 -142 4 -142 4 0 5 -7
2 -15 -5 -12 3 -15 40 -15 39 0 46 -3 46 -19 0 -15 -10 -22 -42 -28 l-43 -9
-3 -166 c-2 -141 0 -168 13 -182 15 -14 76 -16 580 -16 l564 0 15 22 c14 19
16 71 16 364 0 322 -1 342 -19 358 -15 13 -20 14 -24 4 -4 -8 -6 -7 -6 5 -1
13 -10 17 -45 17 l-45 0 10 -32 c12 -42 3 -114 -21 -163 -15 -30 -17 -41 -7
-48 8 -6 6 -7 -5 -3 -11 3 -28 -5 -45 -21 -16 -14 -42 -32 -60 -39 -42 -18
-144 -18 -187 0 -42 18 -95 70 -119 117 -17 32 -23 36 -82 46 -73 13 -125 45
-167 104 l-28 39 -149 0 c-127 0 -152 -3 -170 -17z m324 -276 l0 -69 -95 0
-95 0 -3 71 -3 72 98 -3 98 -3 0 -68z m-138 -83 c-3 -3 -12 -4 -19 -1 -8 3 -5
6 6 6 11 1 17 -2 13 -5z m-10 -70 c-3 -3 -12 -4 -19 -1 -8 3 -5 6 6 6 11 1 17
-2 13 -5z m141 -6 c28 -28 3 -98 -30 -85 -8 3 -5 6 7 8 11 2 -23 5 -75 8 -93
6 -95 6 -95 31 0 25 2 25 95 30 52 3 86 8 75 11 -13 5 -15 7 -4 8 8 0 20 -4
27 -11z m242 -35 l0 -38 -100 3 -100 3 0 29 0 29 98 4 c53 1 98 4 100 5 1 1 2
-15 2 -35z m228 -8 c-4 -31 -2 -34 27 -38 27 -3 26 -4 -7 -5 -21 -1 -38 3 -38
9 0 6 -30 10 -82 9 -46 -1 -87 -1 -93 1 -5 1 -13 1 -17 0 -13 -2 -9 17 5 22 9
3 8 8 -3 22 -8 10 -10 16 -3 12 6 -4 14 -4 16 0 3 5 49 7 102 5 l97 -3 -4 -34z
m264 17 c8 -8 15 -52 18 -122 5 -105 4 -110 -15 -111 -11 0 -37 -2 -58 -5 -39
-5 -82 11 -72 27 4 5 -17 9 -49 9 l-56 0 0 55 0 55 78 0 c66 0 82 3 97 20 16
18 16 20 2 20 -10 0 -16 -6 -14 -12 1 -8 -11 -14 -30 -16 -31 -3 -38 4 -34 31
0 4 -21 7 -49 7 -48 0 -50 1 -50 28 0 16 2 31 4 33 10 10 216 -7 228 -19z m35
-24 c-3 -8 -6 -5 -6 6 -1 11 2 17 5 13 3 -3 4 -12 1 -19z m-910 -34 c-3 -3
-12 -4 -19 -1 -8 3 -5 6 6 6 11 1 17 -2 13 -5z m910 -26 c-3 -8 -6 -5 -6 6 -1
11 2 17 5 13 3 -3 4 -12 1 -19z m-220 -134 c-3 -3 -12 -4 -19 -1 -8 3 -5 6 6
6 11 1 17 -2 13 -5z"/>
<path d="M6040 4239 c0 -5 5 -7 10 -4 6 3 10 8 10 11 0 2 -4 4 -10 4 -5 0 -10
-5 -10 -11z"/>
<path d="M6052 4103 c-1 -16 3 -23 11 -20 17 5 21 33 5 40 -9 3 -15 -4 -16
-20z"/>
<path d="M6820 4099 c0 -11 5 -17 10 -14 6 3 10 13 10 21 0 8 -4 14 -10 14 -5
0 -10 -9 -10 -21z"/>
<path d="M8970 3722 l0 -149 30 0 30 0 0 149 0 148 -30 0 -30 0 0 -148z"/>
<path d="M9092 3723 l3 -148 30 0 30 0 3 83 3 84 59 -76 c62 -78 91 -101 116
-92 12 5 14 31 12 148 l-3 143 -32 3 -32 3 -3 -85 -3 -85 -68 84 c-52 66 -73
85 -92 85 l-26 0 3 -147z"/>
<path d="M9380 3840 c0 -29 2 -30 45 -30 l45 0 0 -115 c0 -69 4 -115 10 -116
6 -1 17 -1 25 -1 8 0 20 0 25 1 6 1 10 47 10 116 l0 115 45 0 c43 0 45 1 45
30 l0 30 -125 0 -125 0 0 -30z"/>
<path d="M9664 3857 c-2 -7 -3 -73 -2 -147 l3 -134 100 0 100 -1 3 28 3 27
-70 0 -71 0 0 35 0 34 58 3 c49 3 57 6 57 23 0 17 -8 20 -57 23 -57 3 -58 4
-58 32 l0 30 65 0 65 0 0 30 0 30 -95 0 c-69 0 -97 -4 -101 -13z"/>
<path d="M9912 3724 l3 -149 25 1 c14 1 28 2 33 3 4 0 7 21 7 46 0 40 2 45 23
45 15 0 31 -15 53 -48 25 -39 36 -47 62 -48 39 -2 39 5 6 58 l-26 41 21 37
c29 51 26 84 -8 122 -28 32 -33 33 -115 37 l-87 3 3 -148z m148 72 c6 -8 10
-25 8 -38 -2 -19 -10 -23 -45 -26 l-43 -3 0 40 c0 40 1 41 34 41 18 0 39 -7
46 -14z"/>
<path d="M10194 3857 c-2 -7 -3 -74 -2 -148 l3 -134 25 1 c14 1 28 2 32 3 4 0
8 37 10 81 l3 80 68 -85 c54 -66 74 -84 90 -81 21 3 22 8 25 150 l3 147 -32
-3 -32 -3 1 -63 c0 -110 -3 -111 -76 -17 -49 63 -73 85 -90 85 -12 0 -25 -6
-28 -13z"/>
<path d="M10587 3853 c-3 -10 -28 -75 -55 -145 -27 -71 -49 -129 -48 -129 0
-1 15 -2 33 -4 29 -2 34 2 43 31 11 32 14 34 59 34 44 0 48 -2 59 -34 9 -24
18 -33 30 -31 9 2 24 4 33 4 14 1 7 27 -40 146 -52 136 -58 145 -82 145 -17 0
-29 -7 -32 -17z m43 -88 c24 -64 24 -72 -9 -77 -17 -3 -31 -1 -31 4 0 12 24
98 27 98 2 0 8 -11 13 -25z"/>
<path d="M10740 3840 c0 -29 2 -30 45 -30 l45 0 0 -115 c0 -63 3 -115 8 -116
4 0 17 -2 30 -5 22 -4 22 -3 22 116 l0 120 45 0 c43 0 45 1 45 30 l0 30 -120
0 -120 0 0 -30z"/>
<path d="M11020 3726 c0 -80 3 -147 8 -147 4 -1 18 -2 32 -3 l25 -1 0 145 0
145 -32 3 -33 3 0 -145z"/>
<path d="M11210 3852 c-122 -61 -99 -253 34 -277 46 -9 106 18 135 61 49 72
22 182 -53 218 -44 21 -73 20 -116 -2z m97 -57 c47 -33 35 -144 -17 -160 -36
-11 -79 13 -89 51 -24 88 41 154 106 109z"/>
<path d="M11452 3723 l3 -147 28 -1 27 -2 0 79 c0 43 4 78 8 78 5 0 37 -36 72
-80 49 -61 70 -79 87 -78 23 2 23 3 23 150 l0 148 -30 0 -29 0 -3 -87 -3 -87
-68 87 c-53 68 -74 87 -93 87 l-25 0 3 -147z"/>
<path d="M11847 3863 c-8 -13 -107 -275 -107 -283 0 -4 14 -7 32 -6 27 1 34 6
42 34 8 30 11 32 58 32 45 0 50 -2 59 -29 8 -21 19 -32 40 -36 17 -4 33 -5 36
-2 3 3 -20 70 -50 149 -49 127 -58 143 -80 146 -14 2 -27 0 -30 -5z m30 -171
c-16 -2 -31 -2 -33 1 -2 2 4 26 13 53 l16 49 17 -50 17 -50 -30 -3z"/>
<path d="M12040 3726 c0 -107 3 -145 13 -147 6 -2 53 -4 102 -4 l90 0 3 28 3
27 -70 0 -71 0 0 120 0 120 -35 0 -35 0 0 -144z"/>
<path d="M1728 3615 c-11 -11 -168 -46 -251 -55 -102 -12 -237 1 -322 30 -29
10 -56 16 -59 13 -3 -4 -6 -67 -6 -140 0 -168 -16 -514 -35 -783 -13 -172 -35
-637 -39 -800 l-1 -45 153 -3 c128 -2 152 0 152 12 0 21 -28 46 -60 53 -16 3
-42 17 -59 32 l-32 26 40 225 c22 124 69 365 105 535 35 171 77 372 92 448 15
75 29 136 31 134 15 -16 88 -530 113 -802 11 -121 28 -276 37 -345 10 -69 16
-169 15 -222 l-3 -98 220 0 c206 0 220 1 214 18 -11 30 -23 41 -56 47 -18 4
-73 21 -123 37 l-91 31 5 828 c5 820 5 829 -15 829 -11 0 -22 -2 -25 -5z"/>
<path d="M8300 3225 l0 -145 35 0 35 0 0 83 1 82 30 -57 c39 -77 60 -77 96 -3
15 30 30 50 34 44 3 -6 4 -42 2 -80 l-4 -69 35 0 36 0 0 145 0 145 -35 0 c-33
0 -36 -3 -74 -77 l-39 -78 -38 78 c-38 76 -39 77 -76 77 l-38 0 0 -145z"/>
<path d="M8709 3346 c-79 -54 -87 -160 -19 -228 33 -34 43 -38 86 -38 86 0
144 58 144 145 0 112 -122 183 -211 121z m121 -56 c22 -22 27 -87 10 -120 -38
-72 -130 -29 -130 59 0 67 75 106 120 61z"/>
<path d="M8960 3225 l0 -145 35 0 34 0 3 82 3 81 64 -81 c54 -68 69 -82 93
-82 l28 0 0 145 0 145 -36 0 -36 0 4 -80 c2 -44 0 -80 -4 -80 -4 0 -35 36 -70
80 -51 65 -68 80 -90 80 l-28 0 0 -145z"/>
<path d="M9280 3225 l0 -145 100 0 100 0 0 28 c0 27 -1 27 -67 27 l-68 0 0 30
c0 30 1 30 58 33 53 3 57 5 57 27 0 22 -4 24 -57 27 -55 3 -58 4 -61 31 l-3
27 70 0 71 0 0 30 0 30 -100 0 -100 0 0 -145z"/>
<path d="M9500 3366 c0 -3 23 -46 50 -97 40 -74 50 -101 50 -141 0 -48 0 -48
33 -48 32 0 32 1 29 38 -3 31 7 59 51 145 l56 107 -37 0 c-36 -1 -38 -3 -68
-68 l-31 -67 -34 68 c-31 62 -36 67 -66 67 -18 0 -33 -2 -33 -4z"/>
<path d="M9840 3340 c0 -29 2 -30 45 -30 l45 0 0 -115 0 -115 35 0 35 0 0 115
0 115 45 0 c43 0 45 1 45 30 l0 30 -125 0 -125 0 0 -30z"/>
<path d="M10120 3225 l0 -145 35 0 c35 0 35 0 35 45 0 41 2 45 24 45 18 0 31
-11 50 -45 25 -41 30 -45 67 -45 l40 0 -36 52 c-19 29 -31 55 -27 58 19 12 42
56 42 78 0 33 -28 78 -57 91 -13 6 -57 11 -98 11 l-75 0 0 -145z m155 45 c0
-34 -1 -35 -42 -38 l-43 -3 0 41 0 41 43 -3 c41 -3 42 -4 42 -38z"/>
<path d="M10481 3348 c-76 -196 -101 -261 -101 -264 0 -2 15 -4 34 -4 29 0 36
5 45 30 9 27 14 30 56 30 42 0 47 -3 56 -30 9 -25 16 -30 45 -30 19 0 34 3 34
8 -1 4 -24 68 -53 142 -49 124 -55 135 -80 138 -21 3 -29 -2 -36 -20z m63
-135 c7 -21 4 -23 -28 -23 -20 0 -36 1 -36 3 0 2 8 26 17 53 l17 49 12 -30 c6
-17 15 -40 18 -52z"/>
<path d="M10680 3225 l0 -145 35 0 34 0 3 81 3 82 64 -82 c53 -68 69 -81 92
-81 l29 0 0 146 0 145 -32 -3 -33 -3 -5 -79 -5 -78 -65 81 c-53 66 -70 81 -92
81 l-28 0 0 -145z"/>
<path d="M11044 3360 c-30 -12 -54 -49 -54 -83 0 -36 31 -64 95 -85 31 -11 51
-24 53 -34 5 -26 -38 -32 -84 -13 -44 18 -59 15 -67 -14 -4 -16 1 -25 21 -35
67 -33 157 -26 187 17 21 30 19 82 -5 105 -11 10 -45 26 -75 36 -42 13 -55 22
-53 34 4 21 58 28 88 12 18 -10 24 -8 36 7 22 29 16 41 -23 52 -45 13 -90 13
-119 1z"/>
<path d="M11250 3225 l0 -145 35 0 35 0 0 55 0 55 56 0 c54 0 55 0 52 28 -3
25 -7 27 -55 30 -51 3 -53 4 -53 33 l0 29 65 0 65 0 0 30 0 30 -100 0 -100 0
0 -145z"/>
<path d="M11490 3225 l0 -145 100 0 100 0 0 25 c0 23 -3 25 -55 26 -30 1 -61
2 -67 3 -7 0 -13 14 -13 31 0 30 1 30 58 33 53 3 57 5 57 27 0 22 -4 24 -57
27 -55 3 -58 4 -61 31 l-3 27 70 0 71 0 0 30 0 30 -100 0 -100 0 0 -145z"/>
<path d="M11740 3225 l0 -145 30 0 c29 0 30 2 30 45 0 41 2 45 25 45 19 0 32
-11 53 -45 24 -41 30 -45 65 -45 28 0 36 3 31 13 -4 6 -18 29 -31 50 l-24 38
21 26 c31 40 27 98 -9 134 -28 27 -34 29 -110 29 l-81 0 0 -145z m154 63 c18
-29 -4 -53 -53 -56 l-41 -3 0 41 0 41 41 -3 c27 -2 46 -9 53 -20z"/>
<path d="M12060 3357 c-36 -18 -54 -62 -43 -101 7 -26 19 -35 73 -57 70 -28
89 -54 47 -64 -13 -4 -41 1 -62 9 -49 21 -50 20 -63 -9 -10 -23 -9 -26 21 -41
17 -9 55 -17 84 -18 71 -1 107 25 111 80 4 49 -21 74 -96 99 -39 12 -52 21
-50 33 4 21 58 28 88 12 18 -10 24 -8 36 7 21 28 17 40 -17 52 -42 15 -98 14
-129 -2z"/>
<path d="M9720 2721 c-5 -11 -10 -26 -10 -35 0 -8 -6 -17 -12 -19 -7 -3 5 -5
27 -5 22 0 30 3 18 5 -13 2 -23 10 -23 17 0 16 21 42 40 49 10 4 7 6 -7 6 -12
1 -27 -8 -33 -18z"/>
<path d="M11744 2655 c1 -82 3 -90 21 -93 19 -4 19 -3 3 10 -13 10 -18 32 -21
93 l-3 80 0 -90z"/>
<path d="M8848 2723 c6 -2 18 -2 25 0 6 3 1 5 -13 5 -14 0 -19 -2 -12 -5z"/>
<path d="M8898 2723 c7 -3 16 -2 19 1 4 3 -2 6 -13 5 -11 0 -14 -3 -6 -6z"/>
<path d="M8943 2723 c9 -2 23 -2 30 0 6 3 -1 5 -18 5 -16 0 -22 -2 -12 -5z"/>
<path d="M8903 2650 c0 -30 2 -43 4 -27 2 15 2 39 0 55 -2 15 -4 2 -4 -28z"/>
<path d="M9220 2679 c33 -13 32 -13 37 -61 6 -61 19 -67 15 -7 -4 50 -27 80
-62 78 -8 0 -4 -5 10 -10z"/>
<path d="M9578 2683 c7 -3 16 -2 19 1 4 3 -2 6 -13 5 -11 0 -14 -3 -6 -6z"/>
<path d="M9854 2674 c-19 -15 -19 -15 1 -6 11 5 27 12 35 15 13 5 13 6 -1 6
-8 1 -24 -6 -35 -15z"/>
<path d="M10324 2674 c10 -9 17 -35 18 -67 l1 -52 6 50 c6 48 -8 85 -32 85 -5
0 -1 -7 7 -16z"/>
<path d="M10407 2675 c17 -12 23 -28 26 -68 l3 -52 2 57 c2 48 -1 59 -17 68
-30 15 -38 12 -14 -5z"/>
<path d="M10535 2665 c-28 -27 -31 -40 -13 -51 7 -5 9 -2 6 7 -11 29 35 65 68
52 9 -3 22 -20 30 -37 11 -26 13 -27 14 -9 0 23 -42 63 -67 63 -8 0 -25 -11
-38 -25z"/>
<path d="M10922 2674 c-12 -8 -22 -20 -22 -26 0 -7 6 -4 13 5 6 9 23 21 37 26
14 5 18 10 10 10 -9 1 -26 -6 -38 -15z"/>
<path d="M11375 2665 c-29 -28 -31 -51 -9 -83 19 -28 65 -29 89 -2 10 11 16
23 12 26 -3 3 -10 -4 -17 -15 -18 -34 -69 -26 -83 13 -11 28 1 54 31 71 15 8
21 14 14 15 -7 0 -24 -11 -37 -25z"/>
<path d="M11623 2676 c12 -9 17 -27 17 -60 0 -25 4 -46 9 -46 13 0 1 104 -13
112 -20 13 -32 8 -13 -6z"/>
<path d="M11990 2679 c-13 -9 -13 -10 1 -6 28 9 43 -11 50 -65 l6 -53 2 52 c1
67 -23 98 -59 72z"/>
<path d="M12203 2674 c24 -13 32 -25 28 -46 0 -5 4 -8 9 -8 6 0 10 5 10 10 0
16 -47 60 -62 60 -7 -1 -1 -8 15 -16z"/>
<path d="M9067 2666 c-19 -15 -30 -63 -17 -71 5 -3 7 6 5 20 -1 18 6 32 23 45
28 22 17 27 -11 6z"/>
<path d="M9350 2622 c0 -41 4 -61 10 -57 6 4 9 21 7 38 -3 22 2 40 17 57 16
18 16 21 3 10 -16 -12 -20 -12 -28 1 -6 9 -9 -7 -9 -49z"/>
<path d="M9440 2661 c5 -11 11 -37 11 -58 1 -26 3 -30 6 -14 6 32 -5 91 -18
91 -6 0 -6 -7 1 -19z"/>
<path d="M9544 2665 c-9 -23 3 -45 24 -45 10 0 27 -7 38 -15 19 -15 19 -15 0
-30 -21 -16 -11 -21 12 -6 24 14 9 44 -28 56 -26 9 -35 18 -34 34 1 25 -4 27
-12 6z"/>
<path d="M9910 2676 c0 -2 7 -9 15 -16 13 -11 14 -10 9 4 -5 14 -24 23 -24 12z"/>
<path d="M10022 2620 c0 -58 1 -61 8 -26 4 22 4 51 0 65 -6 19 -8 7 -8 -39z"/>
<path d="M10050 2670 c0 -5 7 -7 15 -4 8 4 15 8 15 10 0 2 -7 4 -15 4 -8 0
-15 -4 -15 -10z"/>
<path d="M10253 2620 c0 -36 2 -50 4 -32 2 17 2 47 0 65 -2 17 -4 3 -4 -33z"/>
<path d="M10745 2669 c-4 -6 -13 -8 -20 -5 -10 3 -13 -8 -13 -45 -1 -27 4 -49
9 -49 6 0 8 15 6 33 -3 22 2 39 16 55 11 12 18 22 14 22 -3 0 -9 -5 -12 -11z"/>
<path d="M10797 2668 c4 -7 10 -35 14 -63 l6 -50 2 47 c1 51 -6 78 -21 78 -5
0 -6 -6 -1 -12z"/>
<path d="M10980 2676 c0 -2 8 -10 18 -17 15 -13 16 -12 3 4 -13 16 -21 21 -21
13z"/>
<path d="M11085 2658 c4 -13 11 -27 16 -33 5 -5 4 5 -2 23 -12 36 -24 44 -14
10z"/>
<path d="M11165 2643 c-8 -20 -13 -38 -10 -41 3 -3 5 -3 5 0 0 3 7 22 15 42 8
20 13 36 10 36 -2 0 -12 -16 -20 -37z"/>
<path d="M11443 2662 c10 -10 17 -24 17 -30 0 -7 4 -12 10 -12 10 0 3 27 -13
48 -5 6 -14 12 -20 12 -5 0 -3 -8 6 -18z"/>
<path d="M11551 2645 c0 -35 1 -37 10 -17 6 15 5 30 -1 40 -7 13 -9 8 -9 -23z"/>
<path d="M11853 2620 c0 -36 2 -50 4 -32 2 17 2 47 0 65 -2 17 -4 3 -4 -33z"/>
<path d="M12134 2655 c-38 -58 35 -123 92 -80 17 13 16 13 -14 2 -40 -14 -63
-3 -73 37 -6 21 -3 32 12 47 10 10 15 19 9 19 -5 0 -17 -11 -26 -25z"/>
<path d="M11940 2610 c0 -29 2 -51 5 -48 8 7 9 87 2 95 -4 3 -7 -18 -7 -47z"/>
<path d="M9831 2634 c0 -11 3 -14 6 -6 3 7 2 16 -1 19 -3 4 -6 -2 -5 -13z"/>
<path d="M9935 2630 c-3 -5 -1 -10 4 -10 6 0 11 5 11 10 0 6 -2 10 -4 10 -3 0
-8 -4 -11 -10z"/>
<path d="M9171 2616 c-19 -23 3 -56 37 -55 27 2 27 2 2 6 -43 8 -53 39 -17 53
15 6 17 9 6 9 -9 1 -22 -5 -28 -13z"/>
<path d="M9873 2623 c9 -2 25 -2 35 0 9 3 1 5 -18 5 -19 0 -27 -2 -17 -5z"/>
<path d="M10901 2603 c10 -28 26 -43 44 -43 5 0 -1 7 -13 16 -12 8 -22 24 -22
35 0 10 -4 19 -10 19 -6 0 -6 -10 1 -27z"/>
<path d="M10958 2623 c6 -2 18 -2 25 0 6 3 1 5 -13 5 -14 0 -19 -2 -12 -5z"/>
<path d="M12168 2623 c12 -2 30 -2 40 0 9 3 -1 5 -23 4 -22 0 -30 -2 -17 -4z"/>
<path d="M9710 2589 c0 -16 4 -28 9 -25 8 5 3 56 -5 56 -2 0 -4 -14 -4 -31z"/>
<path d="M9830 2604 c0 -30 79 -60 94 -36 2 4 -10 6 -28 4 -26 -3 -37 1 -50
19 -9 13 -16 19 -16 13z"/>
<path d="M10534 2583 c12 -14 29 -22 45 -22 l26 2 -25 4 c-14 3 -34 12 -45 21
-20 17 -20 17 -1 -5z"/>
<path d="M10616 2583 c-6 -14 -5 -15 5 -6 7 7 10 15 7 18 -3 3 -9 -2 -12 -12z"/>
<path d="M11552 2580 c0 -14 2 -19 5 -12 2 6 2 18 0 25 -3 6 -5 1 -5 -13z"/>
<path d="M8901 2574 c0 -11 3 -14 6 -6 3 7 2 16 -1 19 -3 4 -6 -2 -5 -13z"/>
<path d="M10986 2575 c-11 -8 -15 -15 -9 -15 6 0 16 7 23 15 16 19 11 19 -14
0z"/>
<path d="M11140 2581 c0 -7 -3 -10 -7 -8 -5 3 -9 -9 -10 -26 l-2 -32 15 34 c8
19 12 36 9 39 -3 3 -5 0 -5 -7z"/>
<path d="M9040 2569 c0 -5 5 -7 10 -4 6 3 10 8 10 11 0 2 -4 4 -10 4 -5 0 -10
-5 -10 -11z"/>
<path d="M9540 2570 c8 -5 20 -10 25 -10 6 0 3 5 -5 10 -8 5 -19 10 -25 10 -5
0 -3 -5 5 -10z"/>
<path d="M9515 2418 c-10 -34 -11 -65 -1 -65 6 0 11 14 11 31 0 23 5 31 25 37
l25 7 -28 1 c-15 1 -29 -5 -32 -11z"/>
<path d="M10184 2345 c1 -82 3 -90 21 -93 19 -4 19 -3 3 10 -13 10 -18 32 -21
93 l-3 80 0 -90z"/>
<path d="M11020 2420 c0 -5 5 -10 10 -10 6 0 10 5 10 10 0 6 -4 10 -10 10 -5
0 -10 -4 -10 -10z"/>
<path d="M11240 2415 c-7 -8 -9 -15 -6 -15 4 0 14 7 22 15 9 8 11 15 6 15 -5
0 -15 -7 -22 -15z"/>
<path d="M11485 2420 c3 -5 8 -10 11 -10 2 0 4 5 4 10 0 6 -5 10 -11 10 -5 0
-7 -4 -4 -10z"/>
<path d="M9088 2395 c-3 -14 -1 -25 3 -25 5 0 9 11 9 25 0 14 -2 25 -4 25 -2
0 -6 -11 -8 -25z"/>
<path d="M11024 2383 c5 -16 3 -23 -6 -23 -8 0 -9 -3 -3 -8 17 -12 11 -63 -10
-79 -19 -15 -19 -15 -1 -9 11 4 22 2 26 -4 3 -6 6 21 6 59 -1 38 -5 73 -10 78
-5 4 -5 -2 -2 -14z"/>
<path d="M12057 2373 c-3 -16 -2 -34 3 -42 5 -9 8 2 8 27 1 48 -3 54 -11 15z"/>
<path d="M11230 2376 c0 -8 -6 -17 -12 -19 -10 -4 -10 -6 0 -6 8 -1 12 -17 12
-46 0 -25 4 -45 9 -45 8 0 4 80 -5 89 -2 2 1 12 7 22 6 13 6 19 -1 19 -5 0
-10 -6 -10 -14z"/>
<path d="M9224 2365 c-10 -8 -14 -15 -8 -15 5 0 15 5 21 11 17 17 62 2 73 -24
6 -16 9 -18 9 -5 1 19 -35 48 -59 48 -9 0 -25 -7 -36 -15z"/>
<path d="M9675 2371 c28 -6 30 -9 31 -56 0 -27 5 -50 10 -52 12 -4 5 88 -8
105 -6 6 -22 11 -37 11 -25 -1 -25 -2 4 -8z"/>
<path d="M9810 2320 c0 -35 2 -61 4 -59 8 8 10 108 3 116 -4 3 -7 -22 -7 -57z"/>
<path d="M9877 2365 c16 -11 23 -28 26 -63 l3 -47 2 51 c2 51 -10 74 -37 74
-11 0 -9 -4 6 -15z"/>
<path d="M9929 2364 c-13 -16 -12 -16 8 -4 18 12 24 12 39 -1 15 -12 17 -12
12 1 -7 22 -42 24 -59 4z"/>
<path d="M10083 2315 c0 -38 2 -53 4 -32 2 20 2 52 0 70 -2 17 -4 1 -4 -38z"/>
<path d="M10270 2373 c1 -11 39 -80 40 -72 0 11 -30 79 -35 79 -3 0 -5 -3 -5
-7z"/>
<path d="M10588 2373 c6 -2 18 -2 25 0 6 3 1 5 -13 5 -14 0 -19 -2 -12 -5z"/>
<path d="M10808 2364 c17 -12 22 -26 24 -67 l2 -52 3 47 c5 53 -9 88 -35 88
-13 0 -12 -3 6 -16z"/>
<path d="M10939 2363 c-13 -16 -12 -17 3 -4 10 7 27 11 38 8 11 -3 18 -1 14 4
-9 15 -41 10 -55 -8z"/>
<path d="M11351 2323 c-1 -40 3 -63 10 -63 6 0 9 6 6 14 -3 7 -2 30 3 50 4 20
4 34 0 31 -5 -3 -11 3 -13 12 -3 10 -5 -10 -6 -44z"/>
<path d="M11586 2358 c-18 -25 -22 -63 -6 -53 6 4 8 11 4 16 -9 15 26 49 51
49 26 0 49 -24 42 -43 -3 -8 1 -14 8 -14 16 0 1 47 -18 59 -24 15 -66 8 -81
-14z"/>
<path d="M11773 2318 c0 -47 1 -52 4 -19 3 26 12 51 21 59 9 7 11 10 3 6 -7
-3 -17 -1 -21 5 -4 7 -7 -16 -7 -51z"/>
<path d="M11835 2371 c16 -6 21 -20 26 -67 l6 -59 1 61 c2 62 -6 75 -41 73 -7
0 -3 -4 8 -8z"/>
<path d="M11966 2358 c-9 -12 -16 -32 -16 -43 0 -26 35 -65 58 -65 11 0 5 7
-15 20 -48 29 -44 78 7 99 24 9 24 10 3 10 -12 1 -29 -9 -37 -21z"/>
<path d="M12188 2373 c6 -2 18 -2 25 0 6 3 1 5 -13 5 -14 0 -19 -2 -12 -5z"/>
<path d="M10357 2328 c-9 -23 -15 -43 -13 -45 2 -2 11 15 20 38 9 23 15 43 13
45 -2 2 -11 -15 -20 -38z"/>
<path d="M10636 2318 c1 -30 6 -53 13 -54 6 -2 8 -1 3 2 -4 2 -6 20 -4 38 2
19 0 42 -5 50 -6 12 -9 0 -7 -36z"/>
<path d="M12154 2355 c-7 -17 3 -35 18 -35 7 0 6 5 -2 15 -6 8 -9 19 -5 25 3
5 4 10 0 10 -3 0 -8 -7 -11 -15z"/>
<path d="M9092 2314 c-2 -40 2 -53 15 -58 9 -4 21 -2 27 4 7 7 3 10 -11 10
-19 0 -22 7 -26 48 l-3 47 -2 -51z"/>
<path d="M10743 2352 c-12 -7 -13 -92 -1 -92 3 0 8 23 10 50 1 28 3 50 3 50 0
0 -5 -4 -12 -8z"/>
<path d="M11258 2353 c7 -3 16 -2 19 1 4 3 -2 6 -13 5 -11 0 -14 -3 -6 -6z"/>
<path d="M11487 2340 c-3 -11 -1 -23 4 -26 5 -3 9 6 9 20 0 31 -6 34 -13 6z"/>
<path d="M9513 2295 c0 -27 2 -38 4 -22 2 15 2 37 0 50 -2 12 -4 0 -4 -28z"/>
<path d="M9992 2315 c0 -16 2 -22 5 -12 2 9 2 23 0 30 -3 6 -5 -1 -5 -18z"/>
<path d="M10588 2323 c7 -3 16 -2 19 1 4 3 -2 6 -13 5 -11 0 -14 -3 -6 -6z"/>
<path d="M10921 2313 c-1 -24 30 -63 50 -63 7 0 0 9 -14 20 -14 11 -28 30 -30
43 l-4 22 -2 -22z"/>
<path d="M9623 2304 c-12 -32 35 -70 58 -47 5 5 -3 9 -18 8 -31 0 -45 31 -21
46 10 7 10 9 0 9 -7 0 -15 -7 -19 -16z"/>
<path d="M10551 2301 c-12 -22 14 -52 45 -50 14 1 13 3 -6 8 -19 5 -25 14 -25
34 1 32 -1 33 -14 8z"/>
<path d="M11613 2313 c9 -2 25 -2 35 0 9 3 1 5 -18 5 -19 0 -27 -2 -17 -5z"/>
<path d="M12205 2311 c11 -4 22 -19 25 -32 5 -20 7 -21 13 -7 7 20 -17 48 -41
47 -14 0 -13 -2 3 -8z"/>
<path d="M9306 2294 c-4 -9 -4 -19 -1 -22 2 -3 7 3 11 12 4 9 4 19 1 22 -2 3
-7 -3 -11 -12z"/>
<path d="M12057 2291 c-3 -11 2 -26 10 -32 12 -11 13 -8 7 17 -9 37 -10 39
-17 15z"/>
<path d="M11594 2273 c23 -27 58 -30 77 -5 11 14 11 15 -1 5 -20 -18 -50 -16
-74 5 -21 17 -21 17 -2 -5z"/>
<path d="M9220 2271 c0 -5 7 -12 16 -15 14 -5 15 -4 4 9 -14 17 -20 19 -20 6z"/>
<path d="M9991 2264 c0 -11 3 -14 6 -6 3 7 2 16 -1 19 -3 4 -6 -2 -5 -13z"/>
<path d="M11480 2270 c0 -5 5 -10 10 -10 6 0 10 5 10 10 0 6 -4 10 -10 10 -5
0 -10 -4 -10 -10z"/>
<path d="M12150 2272 c0 -13 43 -26 62 -19 7 3 2 6 -12 6 -15 1 -31 6 -38 13
-9 9 -12 9 -12 0z"/>
<path d="M10325 2251 c-3 -12 -13 -28 -21 -36 -13 -13 -14 -15 -1 -15 14 0 42
58 33 67 -2 3 -7 -5 -11 -16z"/>
<path d="M0 450 l0 -450 6500 0 6500 0 0 450 0 450 -6500 0 -6500 0 0 -450z
m780 50 l0 -200 -35 0 -35 0 0 193 c0 107 3 197 7 200 3 4 19 7 35 7 l28 0 0
-200z m-115 105 c24 -23 25 -30 25 -149 0 -68 3 -131 6 -140 5 -13 -1 -16 -30
-16 -27 0 -36 4 -36 17 0 14 -2 15 -17 1 -31 -27 -58 -30 -84 -9 -20 16 -24
29 -24 69 0 57 18 83 76 113 43 21 56 47 35 67 -17 17 -36 8 -36 -19 0 -15 -7
-19 -35 -19 -32 0 -35 2 -35 30 0 46 39 80 90 80 30 0 47 -6 65 -25z m304 1
c13 -14 17 -43 19 -161 l3 -145 -29 0 c-17 0 -32 5 -34 10 -2 7 -16 5 -37 -6
-31 -16 -34 -15 -59 3 -19 14 -28 31 -30 58 -5 55 12 86 69 123 39 25 50 38
47 55 -4 29 -30 28 -43 0 -7 -17 -18 -23 -44 -23 -32 0 -33 1 -27 33 3 17 18
43 33 56 22 19 34 22 71 18 24 -3 51 -12 61 -21z m131 9 c17 21 57 19 72 -4
12 -19 12 -19 36 0 30 23 55 24 76 3 13 -13 16 -42 16 -165 l0 -149 -30 0
c-34 0 -32 -6 -30 136 1 92 -6 134 -25 134 -21 0 -25 -25 -25 -151 l0 -119
-35 0 -34 0 -3 133 c-3 109 -6 132 -18 132 -12 0 -15 -23 -18 -132 l-3 -133
-34 0 -35 0 0 159 0 160 28 3 c15 2 32 -2 38 -9 9 -11 14 -10 24 2z m292 -124
c3 -118 4 -126 23 -126 19 0 20 8 23 128 l3 127 34 0 35 0 0 -184 c0 -170 -1
-185 -21 -210 -18 -23 -27 -26 -85 -26 l-64 0 0 29 c0 28 2 30 48 33 43 3 47
5 50 30 3 27 3 27 -24 14 -33 -18 -64 -8 -81 25 -12 23 -19 280 -8 291 3 2 18
3 35 0 l29 -4 3 -127z m9823 89 c0 -27 -4 -50 -10 -50 -5 0 -10 23 -10 50 0
28 5 50 10 50 6 0 10 -22 10 -50z m470 0 c0 -27 -4 -50 -10 -50 -5 0 -10 23
-10 50 0 28 5 50 10 50 6 0 10 -22 10 -50z m93 38 c7 -7 12 -24 12 -38 0 -34
-17 -50 -52 -50 -27 0 -28 2 -28 50 0 48 1 50 28 50 15 0 33 -5 40 -12z m160
-14 c2 -11 -4 -27 -13 -34 -21 -17 -19 -28 8 -33 16 -3 13 -5 -10 -6 -38 -1
-41 8 -13 34 27 25 27 59 0 52 -11 -3 -17 -1 -14 4 10 17 39 5 42 -17z m75 19
c-13 -2 -23 -11 -23 -19 0 -8 10 -15 23 -15 l22 -2 -22 -4 c-16 -3 -23 -11
-23 -29 0 -13 -4 -24 -10 -24 -5 0 -10 23 -10 50 l0 50 33 -1 c23 -1 26 -3 10
-6z m71 -35 l25 -42 4 45 4 44 1 -52 c1 -29 0 -53 -3 -53 -2 0 -16 17 -30 37
-26 39 -28 38 -25 -9 1 -16 -3 -28 -9 -28 -6 0 -11 21 -11 50 0 28 4 50 9 50
6 0 21 -19 35 -42z m86 22 c0 -30 47 -28 53 3 2 12 4 -3 4 -33 0 -30 -2 -43
-4 -27 -3 21 -10 27 -29 27 -19 0 -24 -5 -24 -25 0 -14 -4 -25 -10 -25 -5 0
-10 23 -10 50 0 28 5 50 10 50 6 0 10 -9 10 -20z m100 -2 c0 -21 0 -21 27 3
20 17 23 18 10 3 -21 -25 -21 -38 -2 -54 8 -7 15 -18 15 -24 -1 -6 -9 -1 -19
12 -24 27 -31 28 -31 2 0 -11 -4 -20 -10 -20 -5 0 -10 23 -10 50 0 28 5 50 10
50 6 0 10 -10 10 -22z m90 0 c0 -21 0 -21 27 3 20 17 23 18 10 3 -21 -25 -21
-38 -2 -54 8 -7 15 -18 15 -24 -1 -6 -9 -1 -19 12 -24 27 -31 28 -31 2 0 -11
-4 -20 -10 -20 -5 0 -10 23 -10 50 0 28 5 50 10 50 6 0 10 -10 10 -22z m118
-4 c2 -11 -4 -27 -13 -34 -21 -17 -19 -28 8 -33 16 -3 13 -5 -10 -6 -38 -1
-41 8 -13 34 27 25 27 59 0 52 -11 -3 -17 -1 -14 4 10 17 39 5 42 -17z m-1131
-39 l1 -40 -6 35 c-4 22 -13 35 -22 35 -9 0 -17 -13 -21 -35 l-6 -35 -2 38
c-1 45 -27 52 -37 10 -10 -48 -12 -49 -13 -7 l-1 41 53 -1 52 -1 2 -40z m81 4
c3 -34 1 -36 -25 -35 -35 1 -46 35 -14 43 26 7 27 20 4 27 -11 3 -7 4 7 3 21
-2 25 -8 28 -38z m80 -16 c-3 -54 -5 -58 -28 -60 -25 -3 -25 -3 -2 7 12 5 22
14 22 19 0 5 -10 11 -22 13 -15 2 -24 11 -26 26 -5 36 5 52 33 52 25 0 26 -2
23 -57z m90 35 c3 -14 -3 -18 -23 -18 -33 0 -29 -22 6 -31 14 -4 17 -7 7 -8
-32 -2 -48 11 -48 38 0 15 3 31 7 35 13 13 48 1 51 -16z m232 12 c0 -5 -4 -10
-10 -10 -5 0 -10 5 -10 10 0 6 5 10 10 10 6 0 10 -4 10 -10z m0 -60 c0 -5 -4
-10 -10 -10 -5 0 -10 5 -10 10 0 6 5 10 10 10 6 0 10 -4 10 -10z m-70 -190 c0
-47 -3 -60 -15 -60 -12 0 -15 13 -15 60 0 47 3 60 15 60 12 0 15 -13 15 -60z
m-580 10 c0 -11 5 -20 10 -20 6 0 10 9 10 20 0 30 27 24 38 -7 l10 -28 7 28
c4 15 11 27 16 27 11 0 11 -7 -2 -52 -12 -47 -34 -49 -44 -5 l-8 32 -6 -30
c-10 -48 -36 -43 -48 10 -8 36 -8 45 3 45 8 0 14 -9 14 -20z m140 0 c0 -11 5
-20 10 -20 6 0 10 9 10 21 0 29 32 21 41 -11 l6 -25 8 28 c7 28 25 38 25 13 0
-27 -22 -76 -35 -76 -7 0 -16 15 -20 33 l-7 32 -9 -32 c-13 -46 -34 -41 -46
12 -8 36 -8 45 3 45 8 0 14 -9 14 -20z m140 0 c0 -11 5 -20 10 -20 6 0 10 9
10 21 0 29 32 21 41 -11 l6 -25 8 28 c7 28 25 38 25 13 0 -27 -22 -76 -35 -76
-7 0 -16 15 -20 33 l-8 32 -6 -30 c-10 -48 -36 -43 -48 10 -8 36 -8 45 3 45 8
0 14 -9 14 -20z m238 -25 c3 -40 2 -41 -30 -40 -28 0 -33 4 -33 25 0 17 7 26
25 31 24 7 24 7 3 8 -13 1 -23 6 -23 12 0 6 12 9 28 7 24 -3 27 -8 30 -43z
m150 0 c3 -40 2 -41 -30 -40 -28 0 -33 4 -33 25 0 17 7 26 25 31 24 7 24 7 3
8 -13 1 -23 6 -23 12 0 6 12 9 28 7 24 -3 27 -8 30 -43z m159 32 c3 -5 7 -25
9 -43 2 -24 -2 -34 -12 -34 -9 0 -14 12 -14 36 0 45 -24 42 -28 -4 -2 -18 -7
-32 -12 -32 -5 0 -10 14 -12 32 -4 46 -28 49 -28 4 0 -25 -4 -36 -15 -36 -11
0 -15 12 -15 44 l0 43 60 0 c33 0 63 -4 67 -10z m60 -19 l10 -33 7 33 c4 18
14 32 22 32 11 0 13 -6 8 -22 -19 -61 -45 -108 -59 -108 -18 0 -20 17 -3 22
10 4 9 16 -4 56 -12 40 -13 52 -4 52 7 0 17 -15 23 -32z m173 23 c0 -5 -9 -11
-20 -14 -11 -3 -20 -13 -20 -22 0 -9 9 -19 20 -22 23 -6 27 -23 6 -23 -31 0
-46 13 -46 39 0 15 5 32 12 39 14 14 48 16 48 3z m90 -5 c28 -35 -11 -93 -47
-70 -36 22 -23 84 17 84 10 0 23 -7 30 -14z m156 2 c4 -6 8 -25 10 -44 2 -25
-1 -34 -12 -34 -9 0 -14 11 -14 36 0 45 -24 42 -28 -4 -2 -18 -7 -32 -12 -32
-5 0 -10 14 -12 32 -4 46 -28 49 -28 4 0 -25 -4 -36 -15 -36 -11 0 -15 12 -15
44 l0 43 60 0 c33 0 63 -4 66 -9z m-885 -71 c-13 -13 -26 -3 -16 12 3 6 11 8
17 5 6 -4 6 -10 -1 -17z m550 0 c-13 -13 -26 -3 -16 12 3 6 11 8 17 5 6 -4 6
-10 -1 -17z"/>
<path d="M592 427 c-26 -27 -28 -55 -6 -64 22 -8 38 12 39 52 2 41 -4 43 -33
12z"/>
<path d="M887 432 c-10 -10 -17 -31 -17 -46 0 -23 4 -27 23 -24 18 2 23 10 25
46 3 46 -6 52 -31 24z"/>
<path d="M11730 580 c0 -33 3 -41 16 -38 9 2 22 11 28 21 13 20 -2 50 -28 55
-13 3 -16 -5 -16 -38z"/>
<path d="M11380 555 c0 -8 6 -15 14 -15 8 0 16 7 20 15 4 10 -1 15 -14 15 -11
0 -20 -7 -20 -15z"/>
<path d="M11464 586 c-8 -22 3 -49 19 -43 6 2 12 14 12 27 0 27 -22 39 -31 16z"/>
<path d="M11555 590 c-3 -5 3 -10 15 -10 12 0 18 5 15 10 -3 6 -10 10 -15 10
-5 0 -12 -4 -15 -10z"/>
<path d="M11657 333 c-12 -11 -8 -23 8 -23 8 0 15 7 15 15 0 16 -12 20 -23 8z"/>
<path d="M11807 333 c-12 -11 -8 -23 8 -23 8 0 15 7 15 15 0 16 -12 20 -23 8z"/>
<path d="M12283 344 c-8 -21 13 -42 28 -27 13 13 5 43 -11 43 -6 0 -13 -7 -17
-16z"/>
</g>
</svg>
